<svg width="105" height="102" viewBox="0 0 105 102" fill="none" xmlns="http://www.w3.org/2000/svg">
<g id="bg-pattern-quotation.svg" clip-path="url(#clip0_1_6)">
<path id="Vector" d="M104.6 102V59.727H84.714C84.714 53.856 85.403 48.545 86.782 43.794C88.161 39.044 90.202 34.507 92.907 30.184C95.61 25.86 99.509 22.257 104.6 19.375V0C94.842 4.27 86.888 9.874 80.736 16.813C74.585 23.752 70.024 31.358 67.055 39.631C64.085 47.904 62.6 59.941 62.6 75.74V102H104.6ZM42.6 102V59.727H22.714C22.714 53.856 23.403 48.545 24.782 43.794C26.161 39.044 28.202 34.507 30.907 30.184C33.61 25.86 37.509 22.257 42.6 19.375V0C32.948 4.27 25.02 9.874 18.816 16.813C12.61 23.752 8.02401 31.358 5.05501 39.631C2.08501 47.904 0.600006 59.941 0.600006 75.74V102H42.6Z" fill="#a775f1"/>
</g>
<defs>
<clipPath id="clip0_1_6">
<rect width="104" height="102" fill="white" transform="translate(0.600006)"/>
</clipPath>
</defs>
</svg>
